{"asset": {"version": "2.0"}, "scene": 0, "scenes": [{"nodes": [0]}], "nodes": [{"mesh": 0}], "meshes": [{"primitives": [{"attributes": {"POSITION": 0, "NORMAL": 1}, "indices": 2, "mode": 4}]}], "buffers": [{"uri": "basket.bin", "byteLength": 1211976}], "bufferViews": [{"buffer": 0, "byteOffset": 0, "byteLength": 331884}, {"buffer": 0, "byteOffset": 331884, "byteLength": 331884}, {"buffer": 0, "byteOffset": 663768, "byteLength": 548208}], "accessors": [{"bufferView": 0, "componentType": 5126, "count": 27657, "type": "VEC3", "min": [-0.1700270026922226, -2.553490834519558e-17, -0.16950100660324097], "max": [0.16897299885749817, 0.2937000095844269, 0.1694989949464798]}, {"bufferView": 1, "componentType": 5126, "count": 27657, "type": "VEC3"}, {"bufferView": 2, "componentType": 5125, "count": 137052, "type": "SCALAR"}]}