{"asset": {"version": "2.0"}, "scene": 0, "scenes": [{"nodes": [0]}], "nodes": [{"mesh": 0}], "meshes": [{"primitives": [{"attributes": {"POSITION": 0, "NORMAL": 1}, "indices": 2, "mode": 4}]}], "buffers": [{"uri": "desk.bin", "byteLength": 8640}], "bufferViews": [{"buffer": 0, "byteOffset": 0, "byteLength": 3456}, {"buffer": 0, "byteOffset": 3456, "byteLength": 3456}, {"buffer": 0, "byteOffset": 6912, "byteLength": 1728}], "accessors": [{"bufferView": 0, "componentType": 5126, "count": 288, "type": "VEC3", "min": [-2.4000000953674316, -2.930000066757202, -1.2999999523162842], "max": [2.4000000953674316, 0.05000000074505806, 1.2999999523162842]}, {"bufferView": 1, "componentType": 5126, "count": 288, "type": "VEC3"}, {"bufferView": 2, "componentType": 5125, "count": 432, "type": "SCALAR"}]}