{"asset": {"version": "2.0"}, "scene": 0, "scenes": [{"nodes": [0]}], "nodes": [{"mesh": 0}], "meshes": [{"primitives": [{"attributes": {"POSITION": 0, "NORMAL": 1}, "indices": 2, "mode": 4}]}], "buffers": [{"uri": "gem.bin", "byteLength": 1896}], "bufferViews": [{"buffer": 0, "byteOffset": 0, "byteLength": 768}, {"buffer": 0, "byteOffset": 768, "byteLength": 768}, {"buffer": 0, "byteOffset": 1536, "byteLength": 360}], "accessors": [{"bufferView": 0, "componentType": 5126, "count": 64, "type": "VEC3", "min": [-20.82392120361328, 0.0, -20.82392120361328], "max": [20.82392120361328, 33.52543640136719, 20.82392120361328]}, {"bufferView": 1, "componentType": 5126, "count": 64, "type": "VEC3"}, {"bufferView": 2, "componentType": 5125, "count": 90, "type": "SCALAR"}]}