{"asset": {"version": "2.0"}, "scene": 0, "scenes": [{"nodes": [0]}], "nodes": [{"mesh": 0}], "meshes": [{"primitives": [{"attributes": {"POSITION": 0, "NORMAL": 1}, "indices": 2, "mode": 4}]}], "buffers": [{"uri": "lamp.bin", "byteLength": 979344}], "bufferViews": [{"buffer": 0, "byteOffset": 0, "byteLength": 301980}, {"buffer": 0, "byteOffset": 301980, "byteLength": 301980}, {"buffer": 0, "byteOffset": 603960, "byteLength": 375384}], "accessors": [{"bufferView": 0, "componentType": 5126, "count": 25165, "type": "VEC3", "min": [-0.9778377413749695, -2.0713910145440137e-16, -0.4664357602596283], "max": [0.8801111578941345, 2.594489574432373, 0.4664357900619507]}, {"bufferView": 1, "componentType": 5126, "count": 25165, "type": "VEC3"}, {"bufferView": 2, "componentType": 5125, "count": 93846, "type": "SCALAR"}]}