{"asset": {"version": "2.0"}, "scene": 0, "scenes": [{"nodes": [0]}], "nodes": [{"mesh": 0}], "meshes": [{"primitives": [{"attributes": {"POSITION": 0, "NORMAL": 1}, "indices": 2, "mode": 4}]}], "buffers": [{"uri": "mirror.bin", "byteLength": 35280}], "bufferViews": [{"buffer": 0, "byteOffset": 0, "byteLength": 10260}, {"buffer": 0, "byteOffset": 10260, "byteLength": 10260}, {"buffer": 0, "byteOffset": 20520, "byteLength": 14760}], "accessors": [{"bufferView": 0, "componentType": 5126, "count": 855, "type": "VEC3", "min": [-0.31344911456108093, 0.002353515475988388, -0.017337827011942863], "max": [0.31655067205429077, 1.721807837486267, 0.020456237718462944]}, {"bufferView": 1, "componentType": 5126, "count": 855, "type": "VEC3"}, {"bufferView": 2, "componentType": 5125, "count": 3690, "type": "SCALAR"}]}